<?xml version="1.0" encoding="UTF-8"?>
<svg id="Layer_2" data-name="Layer 2" xmlns="http://www.w3.org/2000/svg" viewBox="0 0 241 37.22">
  <defs>
    <style>
      .cls-1 {
        fill: #e6000d;
      }

      .cls-1, .cls-2 {
        stroke-width: 0px;
      }

      .cls-2 {
        fill: #fff;
      }
    </style>
  </defs>
  <g id="Layer_1-2" data-name="Layer 1">
    <g>
      <g>
        <rect class="cls-1" x=".25" y=".25" width="240.5" height="36.72"/>
        <path class="cls-2" d="m240.5.5v36.22H.5V.5h240m.5-.5H0v37.22h241V0h0Z"/>
      </g>
      <g>
        <path class="cls-2" d="m14.06,27.45c.93-.24.91-.82.91-1.73v-8.72c0-.91.02-1.49-.91-1.73v-.18h6.56c2.22-.02,2.54,0,3.23-.18l.05.06-1.41,1.74h-.1c-.32-.58-1.09-.59-1.83-.59h-4.02v4.18h4.27c.29,0,1.1.02,1.79-.4l.1.05-.96,1.91h-.11c-.4-.54-1.06-.53-1.74-.53h-3.35v5.09h5.27c.62,0,1.18.02,2.03-.53l.08.08-.83,1.9h-.08c-.22-.24-.66-.26-1.02-.26h-7.94v-.18Z"/>
        <path class="cls-2" d="m45.97,11.34c.8,1.08,1.06,2.53.71,3.73-.51,1.75-2.16,2.35-3.08,2.71,1.33.3,2.85.64,4.05,2.09,1.08,1.31,1.08,3.13.74,4.21-.74,2.16-2.76,3.54-6.51,3.54h-8.07v-.25c1.33-.41,1.31-1.26,1.31-2.53v-12.44c0-1.31.02-2.18-1.31-2.53v-.25h7.45c1.4,0,3.38,0,4.71,1.72Zm-5.24,6.02c2.35,0,3.47-1.17,3.77-2.35.23-.92.12-1.89-.39-2.69-.99-1.59-2.94-1.45-4.6-1.45h-2.09v6.48h3.31Zm-.02,8.9c1.86,0,3.84.16,5.01-1.91.55-.96.57-2.39.05-3.52-.94-2-3.17-1.98-4.78-1.98h-3.56v7.4h3.29Z"/>
        <path class="cls-2" d="m76.7,12.91c2.16,2.53,2.6,5.33,1.82,7.96-.92,3.2-3.77,5.68-6.83,6.6-2.85.85-7.52.69-10.95-2.18-2.71-2.28-3.54-5.22-3.24-7.7.35-2.94,1.98-5.61,5.47-7.29,1.52-.71,3.59-.94,4.42-.97,2.83-.07,6.6.37,9.31,3.59Zm-14.69,10.88c2.12,2.41,5.38,3.08,7.61,2.62,3.27-.71,5.24-2.37,6.21-5.63.76-2.41.39-5.4-1.86-7.7-2.16-2.23-5.79-2.74-8-2.14-2.69.76-4.37,2.16-5.36,4.88-.8,2.28-.62,5.61,1.4,7.98Z"/>
        <path class="cls-2" d="m106.9,12.91c2.16,2.53,2.6,5.33,1.82,7.96-.92,3.2-3.77,5.68-6.83,6.6-2.85.85-7.52.69-10.95-2.18-2.71-2.28-3.54-5.22-3.24-7.7.35-2.94,1.98-5.61,5.47-7.29,1.52-.71,3.59-.94,4.42-.97,2.83-.07,6.6.37,9.31,3.59Zm-14.69,10.88c2.12,2.41,5.38,3.08,7.61,2.62,3.27-.71,5.24-2.37,6.21-5.63.76-2.41.39-5.4-1.86-7.7-2.16-2.23-5.79-2.74-8-2.14-2.69.76-4.37,2.16-5.36,4.88-.8,2.28-.62,5.61,1.4,7.98Z"/>
        <path class="cls-2" d="m121.5,24.86c0,1.61.09,2.35,1.31,2.51v.25h-4.9v-.25c1.33-.34,1.31-1.17,1.31-2.48v-12.53c0-1.31.02-2.14-1.31-2.48v-.25h4.9v.25c-1.22.16-1.31.9-1.31,2.51v5.61l7.89-6.85c.74-.64.62-1.2-.02-1.26v-.25h4.97v.25c-1.56.3-2.37,1.01-3.89,2.32l-6.19,5.36,10.55,8.39c1.24.99,2.39,1.4,3.06,1.43v.25h-6.35v-.25c.58-.09.69-.46.55-.71-.14-.32-1.24-1.13-1.66-1.47l-7.77-6.21-1.15.97v4.92Z"/>
        <path class="cls-2" d="m147.66,24.89v-12.53c0-1.31.02-2.14-1.31-2.48v-.25h9.43c3.2-.02,3.66,0,4.64-.25l.07.09-2.02,2.51h-.14c-.46-.83-1.56-.85-2.62-.85h-5.77v6h6.14c.41,0,1.59.02,2.58-.57l.14.07-1.38,2.74h-.16c-.58-.78-1.52-.76-2.51-.76h-4.81v6.28c0,1.61.09,2.35,1.31,2.51v.25h-4.9v-.25c1.33-.34,1.31-1.17,1.31-2.48Z"/>
        <path class="cls-2" d="m175.41,8.86l10.78,17.08c.53.83,1.06,1.22,1.7,1.47v.21h-4.78v-.21c.48-.02.62-.14.69-.34.12-.3-.05-.64-1.26-2.6l-1.38-2.18h-11.84l-2.09,3.63c-.41.76-.37,1.13.39,1.49v.21h-4.12v-.21c.69-.09,1.47-.55,2.37-2.09l9.54-16.46Zm4.85,12.1l-5.31-8.55-4.83,8.55h10.14Z"/>
        <path class="cls-2" d="m201.15,27.37v.25h-4.9v-.25c1.33-.34,1.31-1.17,1.31-2.48v-12.53c0-1.31.02-2.14-1.31-2.48v-.25h4.9v.25c-1.22.16-1.31.9-1.31,2.51v12.49c0,1.61.09,2.35,1.31,2.51Z"/>
        <path class="cls-2" d="m214.72,27.37v.25h-4.9v-.25c1.33-.34,1.31-1.17,1.31-2.48v-12.53c0-1.31.02-2.14-1.31-2.48v-.25h7.54c1.77,0,5.01.05,6.62,2.9.76,1.31.8,3.4-.3,4.85-1.15,1.49-2.64,2.16-4.16,2.53l4.25,5.47c.92,1.1,1.22,1.59,2.42,2.05l-.05.21h-4.37v-.25c.99,0,.76-.46.37-.92-.92-1.06-5.1-6.37-5.24-6.42-1.52.12-3.06-.18-3.5-.32v5.15c0,1.61.09,2.35,1.31,2.51Zm6.65-10.42c.74-.99.9-2.69.34-3.77-1.4-2.64-5.36-2.32-6.76-2.32h-1.49v7.45c1.31.74,6.07,1.08,7.91-1.36Z"/>
      </g>
    </g>
  </g>
</svg>